# xmcd CD database file
#
# Track frame offsets:
#	150
#	18666
#	37174
#	55692
#
# Disc length: 987 seconds
#
# Revision: 0
# Processed by: cddbd v1.5.1PL0 Copyright (c) Steve Scherf et al.
# Submitted via: CDex 1.51
#
DISCID=2f03d904
DTITLE=かかずゆみ - Soul TWINS
DYEAR=2004
DGENRE=Pop
TTITLE0=Soul TWINS
TTITLE1=Duet Stars
TTITLE2=Soul TWINS(OFF Vocal)
TTITLE3=Duet Stars(OFF Vocal)
EXTD=YEAR: 2004
EXTT0=
EXTT1=
EXTT2=
EXTT3=
PLAYORDER=
